<svg width="1320" height="642" viewBox="0 0 1320 642" fill="none" xmlns="http://www.w3.org/2000/svg">
<path d="M230.029 302.996L213.09 304.142L162.148 253.896L163.069 197.521L163.073 197.29L162.9 197.138L147.767 183.834V162.724V162.519L147.623 162.373L102.627 116.69L102.481 116.541H102.271H60.9976H60.788L60.641 116.69L22.2984 155.705V148.548L35.8366 134.552L36.1763 134.201L35.8331 133.853L0.5 98.0477V66.5235H26.2079H27.4445L26.5554 65.664L6.28246 46.0664L29.8895 22.2273H83.5075L94.2651 33.4292L94.4127 33.5829H94.6257H174.189L193.754 53.6068L193.901 53.7574H194.111H250.462H250.669L250.816 53.6111L264.36 40.0785H316.073L316.292 67.4397L269.599 113.437L269.242 113.788L269.594 114.144L310.261 155.284V167.832V168.036L310.403 168.181L319.222 177.226L319.369 177.377H319.58H332.796H333.296V176.877V99.9145H350.215L362.451 112.139V128.87V129.37H362.951H383.841L411.382 157.369V181.936H377.792H377.292V182.436V201.016L337.552 240.757L337.405 240.903V241.11V254.819L312.268 279.956L311.941 280.283L312.242 280.635L315.679 284.643L312.74 288.219L302.924 278.403L302.776 278.255L302.567 278.257L275.044 278.411L274.834 278.412L274.688 278.562L257.844 295.88L257.703 296.025V296.228V324.214V324.714H258.203H294.168L337.31 369.013L337.657 369.37L338.015 369.025L350.625 356.871L387.786 356.649L405.488 375.045L405.643 375.206L405.866 375.198L418.859 374.743L445.837 402.876L445.985 403.03H446.198H475.909L487.908 415.029V429.223L474.606 442.994L474.46 443.145L474.466 443.355L475.148 468.185L377.665 564.97L377.519 565.115L377.517 565.321L377.293 595.265L366.078 606.024L365.924 606.172V606.385V626.097V626.311L366.079 626.458L376.539 636.454L375.536 640.663H369.638L345.825 617.529V539.331L359.364 525.323L359.503 525.179L359.504 524.978L359.812 467.703L359.813 467.492L359.663 467.344L319.617 427.9V389.031L327.526 380.212L327.84 379.862L327.51 379.527L290.089 341.49L289.942 341.34H289.733H249.751L230.563 321.382V303.495V302.96L230.029 302.996Z" fill="#F0FCEC" stroke="#151022"/>
<path d="M360.663 323.126L362.486 326.773H348.995L352.269 323.126H360.663Z" fill="#F0FCEC" stroke="#151022"/>
<path d="M333.026 318.584L333.172 318.728H333.377H343.923L342.46 321.557H331.732L323.878 313.239L323.73 313.082H323.515H308.848L310.554 310.727H325.052L333.026 318.584Z" fill="#F0FCEC" stroke="#151022"/>
<mask id="path-4-inside-1_158_3031" fill="white">
<path d="M681.215 533.557H713.065L748.625 498.305V466.763L765.623 449.137V407.082L807.063 367.503V352.663H776.445L751.707 327.616V304.123L739.961 293.917L748.388 284.944L764.39 299.785L764.628 317.185L782.941 336.435L818.43 336.898L834.195 321.82V305.818H811.934L791.523 285.406L800.449 276.481L818.537 294.569H856.693L887.595 325.471V342.457L914.81 369.684V339.209L940.603 313.428H956.179L979.862 337.099V370.063L996.551 386.741L1002.8 380.494L990.044 367.74V348.727L1005.81 364.492L1020.89 349.415V338.521L1007.55 325.186L1017.18 315.561H1041.52L1066.92 290.16V271.265L1055.04 259.376V242.047L1064.16 232.908L1084.67 253.402H1094.4V229.28L1140.1 183.597V212.816L1136.15 216.763V239.261L1121.31 254.101H1107.62L1094.86 266.856V283.095L1114.23 263.726H1128.73L1145.6 246.859V227.894L1149.22 224.266V180.35L1118.21 149.353L1128.27 139.301L1164.51 99.1063L1196.06 113.947L1192.35 171.46H1201.01L1261.31 111.161L1225.75 79.9275H1306.76L1319.13 67.5644L1285.42 33.8652H1176.27L1142.41 0H888.697L841.307 47.3899H802.428L784.992 64.8144H773.198L742.96 34.5764H693.661L666.908 61.3295V80.6269L643.178 104.357V124.224L662.854 143.9L684.499 122.256V88.9835L702.409 71.0612V135.129L678.323 159.215H644.956L613.046 191.124V218.849H585.357V248.305H607.843L638.223 217.925H657.71L676.142 236.357H687.391L666.114 215.08L675.099 206.095L705.135 236.132L723.105 218.15V202.385H753.26L771.811 220.936V229.055H742.13L717.546 253.639H749.313V274.975H668.84L646.342 252.478H621.996L613.994 260.479H596.949L555.379 302.049V348.727L583.116 376.464H641.945L656.133 390.653V407.402L666.422 417.69V487.412L681.903 502.881L681.215 533.557Z"/>
</mask>
<path d="M681.215 533.557H713.065L748.625 498.305V466.763L765.623 449.137V407.082L807.063 367.503V352.663H776.445L751.707 327.616V304.123L739.961 293.917L748.388 284.944L764.39 299.785L764.628 317.185L782.941 336.435L818.43 336.898L834.195 321.82V305.818H811.934L791.523 285.406L800.449 276.481L818.537 294.569H856.693L887.595 325.471V342.457L914.81 369.684V339.209L940.603 313.428H956.179L979.862 337.099V370.063L996.551 386.741L1002.8 380.494L990.044 367.74V348.727L1005.81 364.492L1020.89 349.415V338.521L1007.55 325.186L1017.18 315.561H1041.52L1066.92 290.16V271.265L1055.04 259.376V242.047L1064.16 232.908L1084.67 253.402H1094.4V229.28L1140.1 183.597V212.816L1136.15 216.763V239.261L1121.31 254.101H1107.62L1094.86 266.856V283.095L1114.23 263.726H1128.73L1145.6 246.859V227.894L1149.22 224.266V180.35L1118.21 149.353L1128.27 139.301L1164.51 99.1063L1196.06 113.947L1192.35 171.46H1201.01L1261.31 111.161L1225.75 79.9275H1306.76L1319.13 67.5644L1285.42 33.8652H1176.27L1142.41 0H888.697L841.307 47.3899H802.428L784.992 64.8144H773.198L742.96 34.5764H693.661L666.908 61.3295V80.6269L643.178 104.357V124.224L662.854 143.9L684.499 122.256V88.9835L702.409 71.0612V135.129L678.323 159.215H644.956L613.046 191.124V218.849H585.357V248.305H607.843L638.223 217.925H657.71L676.142 236.357H687.391L666.114 215.08L675.099 206.095L705.135 236.132L723.105 218.15V202.385H753.26L771.811 220.936V229.055H742.13L717.546 253.639H749.313V274.975H668.84L646.342 252.478H621.996L613.994 260.479H596.949L555.379 302.049V348.727L583.116 376.464H641.945L656.133 390.653V407.402L666.422 417.69V487.412L681.903 502.881L681.215 533.557Z" fill="#F0FCEC" stroke="#151022" stroke-width="2" mask="url(#path-4-inside-1_158_3031)"/>
<path d="M795.579 471.981L795.432 472.127V472.335V486.968L787.268 495.121L779.577 487.43V463.555L799.451 441.774V468.109L795.579 471.981Z" fill="#F0FCEC" stroke="#151022"/>
<path d="M995.487 397.087L995.633 397.233H995.84H1001.36L1008.4 404.278V417.595V418.095H1008.9H1015.58L1021.15 423.674L1021.3 423.821H1021.5H1038.46L1042.33 427.692H1011.04L986.656 403.307V397.504V397.299L986.512 397.153L969.05 379.453H977.853L995.487 397.087Z" fill="#F0FCEC" stroke="#151022"/>
<path d="M1029.53 390.615L1029.81 390.689L1030.01 390.485L1048.01 372.478L1051.9 376.375V397.724L1040.32 409.308H1027.8L1021.85 403.366V388.566L1029.53 390.615Z" fill="#F0FCEC" stroke="#151022"/>
<path d="M1056.65 356.515L1052.31 360.871L1051.1 360.257L1055.75 355.61L1056.65 356.515Z" fill="#F0FCEC" stroke="#151022"/>
<path d="M1082.07 374.1L1080.49 375.686L1072.73 367.932L1072.38 367.578L1072.02 367.932L1068.67 371.288L1067.05 369.672L1071.66 365.059L1072.01 364.71L1071.67 364.356L1066.89 359.471L1070.21 356.155L1073.88 359.828V366.27V366.478L1074.03 366.624L1076.35 368.947L1076.7 369.301L1077.06 368.947L1082.07 363.923V374.1Z" fill="#F0FCEC" stroke="#151022"/>
<path d="M1061.58 351.72V329.041H1066.92V340.679V340.906L1067.09 341.055L1081.35 353.505L1076.45 353.902L1067.74 346.915L1067.41 346.654L1067.09 346.927L1061.58 351.72Z" fill="#F0FCEC" stroke="#151022"/>
<path d="M1067.89 300.8L1069.74 302.652L1067.22 305.155L1067.06 305.318L1067.08 305.549L1067.65 312.892H1062.52V306.179L1067.89 300.8Z" fill="#F0FCEC" stroke="#151022"/>
<path d="M1159.72 423.366L1170.37 434.024L1161.47 434.706L1151.12 424.354L1150.76 424L1150.41 424.354L1144.52 430.241H1136.12L1118.18 412.299L1118.03 412.153H1117.82H1109.69L1102.32 404.788V399.391H1113.77V406.773V407.273H1114.27H1120.76H1120.97L1121.12 407.128L1123.97 404.286H1145.14L1159.57 418.704V423.013V423.22L1159.72 423.366Z" fill="#F0FCEC" stroke="#151022"/>
<path d="M1083.78 407.558H1093.22L1095.01 409.347L1085.89 409.656L1083.78 407.558Z" fill="#F0FCEC" stroke="#151022"/>
<path d="M1064.61 404.174L1064.52 404.461L1064.73 404.673L1066.42 406.364V412.034H1061.87L1058.72 408.89V402.121L1066.4 394.448H1074.41L1073.49 395.365L1066.75 397.804L1066.52 397.89L1066.45 398.129L1064.61 404.174Z" fill="#F0FCEC" stroke="#151022"/>
<path d="M1061.41 434.721H1056.48V430.124V429.624H1055.98H1052.9V426.606H1069.6L1065.09 431.036L1065.09 431.036L1065.09 431.039L1061.41 434.721Z" fill="#F0FCEC" stroke="#151022"/>
<path d="M1135.46 464.215V442.024L1179.42 485.995V527.032L1156.12 550.34H1148.44H1142.03L1113.78 522.074L1113.63 521.927H1113.43H1082.35H1082.14L1081.99 522.074L1068.22 535.843H1040.17V475.588L1054.72 474.635L1054.91 474.623L1055.05 474.49L1081.15 448.381H1118.42L1134.61 464.569L1135.46 465.422V464.215Z" fill="#F0FCEC" stroke="#151022"/>
<path d="M1254.64 528.213L1270.89 544.46L1271.04 544.607H1271.24H1276.66V553.762L1241.7 588.721H1234.46L1231.48 585.736L1254.99 562.233H1261.38H1261.88V561.733V544.225V544.018L1261.73 543.872L1254.25 536.371L1254.64 528.213Z" fill="#F0FCEC" stroke="#151022"/>
<path d="M1153.58 572.257V563.976H1162.76L1162.57 567.667L1157.98 572.257H1153.58Z" fill="#F0FCEC" stroke="#151022"/>
<path d="M584.92 154.657L605.956 133.633V150.586V150.793L606.102 150.939L619.99 164.827V175.914H604.87V159.867V159.66L604.723 159.513L595.596 150.386L594.767 149.557L594.743 150.729L594.291 172.204H584.92V154.657Z" fill="#F0FCEC" stroke="#151022"/>
</svg>
