<svg width="1920" height="905" viewBox="0 0 1920 905" fill="none" xmlns="http://www.w3.org/2000/svg">
<rect width="1920" height="905" fill="#F0FCEC"/>
<line x1="96.5803" y1="206.869" x2="143.3" y2="134.728" stroke="#ABDE9B"/>
<line x1="97.967" y1="237.1" x2="144.687" y2="164.959" stroke="#ABDE9B"/>
<line x1="128.869" y1="217.175" x2="175.589" y2="145.034" stroke="#ABDE9B"/>
<g clip-path="url(#clip0_482_228)">
<path d="M1764.67 777.396C1763.69 778.506 1762 778.605 1760.89 777.618C1759.78 776.632 1759.69 774.938 1760.67 773.828C1761.65 772.718 1763.34 772.62 1764.45 773.606C1765.56 774.593 1765.66 776.286 1764.67 777.396Z" fill="#ABDE9B"/>
<path d="M1776.36 787.821C1775.38 788.931 1773.69 789.03 1772.58 788.043C1771.48 787.057 1771.38 785.363 1772.36 784.253C1773.35 783.143 1775.03 783.045 1776.14 784.031C1777.25 785.018 1777.35 786.711 1776.36 787.821Z" fill="#ABDE9B"/>
<path d="M1799.75 808.671C1798.77 809.781 1797.08 809.879 1795.97 808.893C1794.86 807.906 1794.76 806.213 1795.75 805.103C1796.73 803.993 1798.42 803.894 1799.53 804.881C1800.63 805.867 1800.73 807.561 1799.75 808.671Z" fill="#ABDE9B"/>
<path d="M1811.44 819.096C1810.46 820.206 1808.77 820.304 1807.66 819.318C1806.55 818.331 1806.46 816.637 1807.44 815.527C1808.42 814.418 1810.11 814.319 1811.22 815.306C1812.32 816.292 1812.42 817.994 1811.44 819.096Z" fill="#ABDE9B"/>
<path d="M1785.8 777.174C1784.82 778.284 1783.13 778.383 1782.02 777.396C1780.91 776.41 1780.82 774.716 1781.8 773.606C1782.78 772.496 1784.47 772.398 1785.58 773.384C1786.69 774.371 1786.78 776.073 1785.8 777.174Z" fill="#ABDE9B"/>
<path d="M1797.49 787.607C1796.51 788.717 1794.82 788.816 1793.71 787.829C1792.6 786.843 1792.51 785.149 1793.49 784.039C1794.47 782.929 1796.16 782.831 1797.27 783.817C1798.38 784.804 1798.48 786.498 1797.49 787.607Z" fill="#ABDE9B"/>
<path d="M1809.19 798.032C1808.2 799.142 1806.51 799.241 1805.41 798.254C1804.3 797.268 1804.2 795.574 1805.19 794.464C1806.17 793.354 1807.86 793.256 1808.97 794.242C1810.07 795.229 1810.17 796.922 1809.19 798.032Z" fill="#ABDE9B"/>
<path d="M1795.25 766.536C1794.26 767.646 1792.57 767.744 1791.47 766.758C1790.36 765.771 1790.26 764.078 1791.24 762.968C1792.23 761.858 1793.92 761.759 1795.02 762.746C1796.12 763.732 1796.23 765.426 1795.25 766.536Z" fill="#ABDE9B"/>
<path d="M1806.94 776.961C1805.95 778.07 1804.26 778.169 1803.16 777.183C1802.05 776.196 1801.95 774.502 1802.94 773.392C1803.92 772.283 1805.61 772.184 1806.72 773.171C1807.81 774.157 1807.91 775.851 1806.94 776.961Z" fill="#ABDE9B"/>
<path d="M1818.62 787.385C1817.64 788.495 1815.95 788.594 1814.84 787.607C1813.73 786.621 1813.64 784.927 1814.62 783.817C1815.6 782.707 1817.29 782.609 1818.4 783.595C1819.51 784.582 1819.6 786.276 1818.62 787.385Z" fill="#ABDE9B"/>
<path d="M1830.32 797.81C1829.33 798.92 1827.64 799.019 1826.54 798.032C1825.43 797.046 1825.33 795.352 1826.31 794.242C1827.3 793.132 1828.99 793.034 1830.09 794.02C1831.2 795.007 1831.3 796.709 1830.32 797.81Z" fill="#ABDE9B"/>
<path d="M1792.99 745.464C1792.01 746.574 1790.32 746.673 1789.21 745.686C1788.1 744.7 1788.01 743.006 1788.99 741.896C1789.97 740.786 1791.66 740.688 1792.77 741.674C1793.88 742.661 1793.98 744.363 1792.99 745.464Z" fill="#ABDE9B"/>
<path d="M1816.37 766.322C1815.39 767.432 1813.7 767.531 1812.59 766.544C1811.49 765.558 1811.39 763.864 1812.37 762.754C1813.36 761.644 1815.05 761.546 1816.15 762.532C1817.26 763.519 1817.36 765.212 1816.37 766.322Z" fill="#ABDE9B"/>
<path d="M1828.07 776.747C1827.09 777.857 1825.4 777.956 1824.29 776.969C1823.18 775.982 1823.08 774.289 1824.07 773.179C1825.05 772.069 1826.74 771.97 1827.85 772.957C1828.95 773.943 1829.05 775.637 1828.07 776.747Z" fill="#ABDE9B"/>
</g>
<rect x="197.422" y="678.955" width="110.94" height="110.94" transform="rotate(164.597 197.422 678.955)" fill="url(#paint0_linear_482_228)"/>
<path d="M1738 217.867C1701.23 223.996 1696.46 170.555 1723.7 172.818C1726.95 173.088 1729.37 176.042 1728.82 179.254C1725.1 201.016 1684.5 197.786 1684.5 170.367C1681.5 153.367 1690 124.367 1652 132.367" stroke="#BBD2B2" stroke-width="2"/>
<defs>
<linearGradient id="paint0_linear_482_228" x1="303.665" y1="784.958" x2="206.622" y2="683.944" gradientUnits="userSpaceOnUse">
<stop stop-color="#E3F9DD"/>
<stop offset="1" stop-color="#E3F9DD" stop-opacity="0"/>
</linearGradient>
<clipPath id="clip0_482_228">
<rect width="71" height="79" fill="white" transform="translate(1760 741)"/>
</clipPath>
</defs>
</svg>
